<?xml version="1.0" standalone="no"?>
<!DOCTYPE svg PUBLIC "-//W3C//DTD SVG 20010904//EN"
 "http://www.w3.org/TR/2001/REC-SVG-20010904/DTD/svg10.dtd">
<svg version="1.0" xmlns="http://www.w3.org/2000/svg"
 width="256.000000pt" height="256.000000pt" viewBox="0 0 256.000000 256.000000"
 preserveAspectRatio="xMidYMid meet">

<g transform="translate(0.000000,256.000000) scale(0.100000,-0.100000)"
fill="#000000" stroke="none">
<path d="M63 2213 c-46 -9 -63 -48 -63 -142 l1 -86 639 -428 640 -428 638 428
637 428 0 92 c0 83 -2 95 -23 115 l-23 23 -1212 1 c-666 1 -1222 -1 -1234 -3z"/>
<path d="M0 1138 c0 -463 2 -530 17 -574 32 -96 83 -152 175 -194 42 -19 77
-20 1090 -20 l1046 0 63 33 c68 35 129 102 151 167 13 38 25 1110 12 1110 -4
0 -290 -189 -635 -420 -345 -231 -633 -420 -639 -420 -7 0 -291 187 -632 416
-341 228 -626 418 -634 421 -12 4 -14 -74 -14 -519z"/>
</g>
</svg>
