<?xml version="1.0" standalone="no"?>
<!DOCTYPE svg PUBLIC "-//W3C//DTD SVG 20010904//EN"
 "http://www.w3.org/TR/2001/REC-SVG-20010904/DTD/svg10.dtd">
<svg version="1.0" xmlns="http://www.w3.org/2000/svg"
 width="256.000000pt" height="256.000000pt" viewBox="0 0 256.000000 256.000000"
 preserveAspectRatio="xMidYMid meet">

<g transform="translate(0.000000,256.000000) scale(0.100000,-0.100000)"
fill="#000000" stroke="none">
<path d="M1060 2544 c-52 -7 -126 -13 -163 -13 l-68 -1 7 -70 c6 -67 5 -73
-30 -143 -44 -87 -57 -171 -53 -342 2 -112 0 -123 -20 -149 -13 -16 -23 -37
-23 -47 0 -20 62 -220 80 -261 7 -15 27 -34 45 -42 27 -13 34 -24 45 -73 24
-109 41 -152 75 -198 l35 -45 0 -125 c0 -140 -11 -180 -55 -209 -15 -10 -103
-58 -196 -107 -199 -104 -268 -149 -330 -215 -75 -81 -134 -204 -152 -315 -8
-51 17 -72 124 -102 192 -56 474 -82 899 -82 425 0 707 26 899 82 103 29 132
52 125 97 -22 126 -84 246 -174 335 -57 57 -109 90 -375 235 -187 102 -185 99
-185 278 l0 128 35 45 c34 46 51 89 75 198 11 49 18 60 45 73 38 18 46 33 91
177 39 126 40 136 15 168 -17 22 -19 46 -23 204 -3 169 -5 183 -29 235 -14 31
-40 72 -57 91 -37 43 -128 93 -203 113 -30 8 -81 28 -114 45 -100 52 -175 60
-345 35z"/>
</g>
</svg>
